<mxfile host="app.diagrams.net" agent="Mozilla/5.0 (Windows NT 10.0; Win64; x64) AppleWebKit/537.36 (KHTML, like Gecko) Chrome/130.0.0.0 Safari/537.36" version="24.8.4">
  <diagram name="Page-1" id="0POdcQkDjJuLu0Xd19ot">
    <mxGraphModel dx="2284" dy="756" grid="1" gridSize="10" guides="1" tooltips="1" connect="1" arrows="1" fold="1" page="1" pageScale="1" pageWidth="850" pageHeight="1100" math="0" shadow="0">
      <root>
        <mxCell id="0" />
        <mxCell id="1" parent="0" />
        <mxCell id="jqGfhg1RxOjhNtgh079G-30" style="edgeStyle=orthogonalEdgeStyle;rounded=0;orthogonalLoop=1;jettySize=auto;html=1;exitX=0.5;exitY=1;exitDx=0;exitDy=0;entryX=0.5;entryY=0;entryDx=0;entryDy=0;" parent="1" source="jqGfhg1RxOjhNtgh079G-1" target="jqGfhg1RxOjhNtgh079G-2" edge="1">
          <mxGeometry relative="1" as="geometry" />
        </mxCell>
        <mxCell id="jqGfhg1RxOjhNtgh079G-1" value="Start" style="ellipse;whiteSpace=wrap;html=1;" parent="1" vertex="1">
          <mxGeometry x="365" y="50" width="120" height="80" as="geometry" />
        </mxCell>
        <mxCell id="jqGfhg1RxOjhNtgh079G-31" style="edgeStyle=orthogonalEdgeStyle;rounded=0;orthogonalLoop=1;jettySize=auto;html=1;exitX=0.5;exitY=1;exitDx=0;exitDy=0;entryX=0.5;entryY=0;entryDx=0;entryDy=0;" parent="1" source="jqGfhg1RxOjhNtgh079G-2" target="jqGfhg1RxOjhNtgh079G-3" edge="1">
          <mxGeometry relative="1" as="geometry" />
        </mxCell>
        <mxCell id="jqGfhg1RxOjhNtgh079G-2" value="u arrived at parking entrance" style="rounded=1;whiteSpace=wrap;html=1;" parent="1" vertex="1">
          <mxGeometry x="365" y="190" width="120" height="60" as="geometry" />
        </mxCell>
        <mxCell id="jqGfhg1RxOjhNtgh079G-32" style="edgeStyle=orthogonalEdgeStyle;rounded=0;orthogonalLoop=1;jettySize=auto;html=1;exitX=0.5;exitY=1;exitDx=0;exitDy=0;entryX=0.5;entryY=0;entryDx=0;entryDy=0;" parent="1" source="jqGfhg1RxOjhNtgh079G-3" target="jqGfhg1RxOjhNtgh079G-6" edge="1">
          <mxGeometry relative="1" as="geometry" />
        </mxCell>
        <mxCell id="jqGfhg1RxOjhNtgh079G-46" style="edgeStyle=orthogonalEdgeStyle;rounded=0;orthogonalLoop=1;jettySize=auto;html=1;exitX=1;exitY=0.5;exitDx=0;exitDy=0;entryX=0;entryY=0.5;entryDx=0;entryDy=0;" parent="1" source="jqGfhg1RxOjhNtgh079G-3" target="jqGfhg1RxOjhNtgh079G-4" edge="1">
          <mxGeometry relative="1" as="geometry" />
        </mxCell>
        <mxCell id="jqGfhg1RxOjhNtgh079G-3" value="do u feel like training" style="rhombus;whiteSpace=wrap;html=1;" parent="1" vertex="1">
          <mxGeometry x="350" y="310" width="150" height="150" as="geometry" />
        </mxCell>
        <mxCell id="jqGfhg1RxOjhNtgh079G-4" value="skip gym" style="rounded=1;whiteSpace=wrap;html=1;" parent="1" vertex="1">
          <mxGeometry x="630" y="355" width="120" height="60" as="geometry" />
        </mxCell>
        <mxCell id="jqGfhg1RxOjhNtgh079G-34" style="edgeStyle=orthogonalEdgeStyle;rounded=0;orthogonalLoop=1;jettySize=auto;html=1;exitX=1;exitY=0.5;exitDx=0;exitDy=0;entryX=0;entryY=0.5;entryDx=0;entryDy=0;" parent="1" source="jqGfhg1RxOjhNtgh079G-5" target="jqGfhg1RxOjhNtgh079G-8" edge="1">
          <mxGeometry relative="1" as="geometry" />
        </mxCell>
        <mxCell id="jqGfhg1RxOjhNtgh079G-36" style="edgeStyle=orthogonalEdgeStyle;rounded=0;orthogonalLoop=1;jettySize=auto;html=1;exitX=0.5;exitY=1;exitDx=0;exitDy=0;" parent="1" source="jqGfhg1RxOjhNtgh079G-5" target="jqGfhg1RxOjhNtgh079G-7" edge="1">
          <mxGeometry relative="1" as="geometry" />
        </mxCell>
        <mxCell id="jqGfhg1RxOjhNtgh079G-5" value="u arrived by foot" style="rhombus;whiteSpace=wrap;html=1;" parent="1" vertex="1">
          <mxGeometry x="345" y="720" width="160" height="160" as="geometry" />
        </mxCell>
        <mxCell id="jqGfhg1RxOjhNtgh079G-33" style="edgeStyle=orthogonalEdgeStyle;rounded=0;orthogonalLoop=1;jettySize=auto;html=1;exitX=0.5;exitY=1;exitDx=0;exitDy=0;entryX=0.5;entryY=0;entryDx=0;entryDy=0;" parent="1" source="jqGfhg1RxOjhNtgh079G-6" target="jqGfhg1RxOjhNtgh079G-5" edge="1">
          <mxGeometry relative="1" as="geometry" />
        </mxCell>
        <mxCell id="jqGfhg1RxOjhNtgh079G-114" style="edgeStyle=orthogonalEdgeStyle;rounded=0;orthogonalLoop=1;jettySize=auto;html=1;exitX=1;exitY=0.5;exitDx=0;exitDy=0;entryX=0.5;entryY=1;entryDx=0;entryDy=0;" parent="1" source="jqGfhg1RxOjhNtgh079G-6" target="jqGfhg1RxOjhNtgh079G-4" edge="1">
          <mxGeometry relative="1" as="geometry" />
        </mxCell>
        <mxCell id="jqGfhg1RxOjhNtgh079G-6" value="gym open" style="rhombus;whiteSpace=wrap;html=1;" parent="1" vertex="1">
          <mxGeometry x="355" y="520" width="140" height="140" as="geometry" />
        </mxCell>
        <mxCell id="jqGfhg1RxOjhNtgh079G-37" style="edgeStyle=orthogonalEdgeStyle;rounded=0;orthogonalLoop=1;jettySize=auto;html=1;exitX=0.5;exitY=1;exitDx=0;exitDy=0;entryX=0.5;entryY=0;entryDx=0;entryDy=0;" parent="1" source="jqGfhg1RxOjhNtgh079G-7" target="jqGfhg1RxOjhNtgh079G-16" edge="1">
          <mxGeometry relative="1" as="geometry" />
        </mxCell>
        <mxCell id="jqGfhg1RxOjhNtgh079G-7" value="enter gym" style="rounded=1;whiteSpace=wrap;html=1;" parent="1" vertex="1">
          <mxGeometry x="365" y="1550" width="120" height="60" as="geometry" />
        </mxCell>
        <mxCell id="jqGfhg1RxOjhNtgh079G-35" style="edgeStyle=orthogonalEdgeStyle;rounded=0;orthogonalLoop=1;jettySize=auto;html=1;exitX=1;exitY=0.5;exitDx=0;exitDy=0;entryX=0;entryY=0.5;entryDx=0;entryDy=0;" parent="1" source="jqGfhg1RxOjhNtgh079G-8" target="jqGfhg1RxOjhNtgh079G-9" edge="1">
          <mxGeometry relative="1" as="geometry" />
        </mxCell>
        <mxCell id="jqGfhg1RxOjhNtgh079G-38" style="edgeStyle=orthogonalEdgeStyle;rounded=0;orthogonalLoop=1;jettySize=auto;html=1;exitX=0.5;exitY=1;exitDx=0;exitDy=0;entryX=0.5;entryY=0;entryDx=0;entryDy=0;" parent="1" source="jqGfhg1RxOjhNtgh079G-8" target="jqGfhg1RxOjhNtgh079G-10" edge="1">
          <mxGeometry relative="1" as="geometry" />
        </mxCell>
        <mxCell id="jqGfhg1RxOjhNtgh079G-8" value="u arrived by bicycle" style="rhombus;whiteSpace=wrap;html=1;" parent="1" vertex="1">
          <mxGeometry x="610" y="720" width="160" height="160" as="geometry" />
        </mxCell>
        <mxCell id="jqGfhg1RxOjhNtgh079G-41" style="edgeStyle=orthogonalEdgeStyle;rounded=0;orthogonalLoop=1;jettySize=auto;html=1;exitX=0.5;exitY=1;exitDx=0;exitDy=0;entryX=0.5;entryY=0;entryDx=0;entryDy=0;" parent="1" source="jqGfhg1RxOjhNtgh079G-9" target="jqGfhg1RxOjhNtgh079G-11" edge="1">
          <mxGeometry relative="1" as="geometry" />
        </mxCell>
        <mxCell id="jqGfhg1RxOjhNtgh079G-120" style="edgeStyle=orthogonalEdgeStyle;rounded=0;orthogonalLoop=1;jettySize=auto;html=1;exitX=0.5;exitY=0;exitDx=0;exitDy=0;entryX=1;entryY=0.5;entryDx=0;entryDy=0;" parent="1" source="jqGfhg1RxOjhNtgh079G-9" target="jqGfhg1RxOjhNtgh079G-4" edge="1">
          <mxGeometry relative="1" as="geometry" />
        </mxCell>
        <mxCell id="jqGfhg1RxOjhNtgh079G-9" value="u arrived by car" style="rhombus;whiteSpace=wrap;html=1;" parent="1" vertex="1">
          <mxGeometry x="1210" y="720" width="160" height="160" as="geometry" />
        </mxCell>
        <mxCell id="jqGfhg1RxOjhNtgh079G-127" style="edgeStyle=orthogonalEdgeStyle;rounded=0;orthogonalLoop=1;jettySize=auto;html=1;exitX=0.5;exitY=1;exitDx=0;exitDy=0;entryX=0.5;entryY=0;entryDx=0;entryDy=0;" parent="1" source="jqGfhg1RxOjhNtgh079G-10" target="jqGfhg1RxOjhNtgh079G-14" edge="1">
          <mxGeometry relative="1" as="geometry" />
        </mxCell>
        <mxCell id="jqGfhg1RxOjhNtgh079G-129" style="edgeStyle=orthogonalEdgeStyle;rounded=0;orthogonalLoop=1;jettySize=auto;html=1;exitX=1;exitY=0.5;exitDx=0;exitDy=0;entryX=0;entryY=0.5;entryDx=0;entryDy=0;" parent="1" source="jqGfhg1RxOjhNtgh079G-10" target="jqGfhg1RxOjhNtgh079G-124" edge="1">
          <mxGeometry relative="1" as="geometry" />
        </mxCell>
        <mxCell id="jqGfhg1RxOjhNtgh079G-10" value="does gym have&lt;div&gt;&lt;span style=&quot;background-color: initial;&quot;&gt;&amp;nbsp;bicycle parking&lt;/span&gt;&lt;/div&gt;" style="rhombus;whiteSpace=wrap;html=1;" parent="1" vertex="1">
          <mxGeometry x="620" y="940" width="140" height="140" as="geometry" />
        </mxCell>
        <mxCell id="jqGfhg1RxOjhNtgh079G-128" style="edgeStyle=orthogonalEdgeStyle;rounded=0;orthogonalLoop=1;jettySize=auto;html=1;exitX=0.5;exitY=1;exitDx=0;exitDy=0;entryX=0.5;entryY=0;entryDx=0;entryDy=0;" parent="1" source="jqGfhg1RxOjhNtgh079G-11" target="jqGfhg1RxOjhNtgh079G-15" edge="1">
          <mxGeometry relative="1" as="geometry" />
        </mxCell>
        <mxCell id="jqGfhg1RxOjhNtgh079G-130" style="edgeStyle=orthogonalEdgeStyle;rounded=0;orthogonalLoop=1;jettySize=auto;html=1;exitX=0;exitY=0.5;exitDx=0;exitDy=0;entryX=1;entryY=0.5;entryDx=0;entryDy=0;" parent="1" source="jqGfhg1RxOjhNtgh079G-11" target="jqGfhg1RxOjhNtgh079G-124" edge="1">
          <mxGeometry relative="1" as="geometry" />
        </mxCell>
        <mxCell id="jqGfhg1RxOjhNtgh079G-11" value="does gym have&lt;div&gt;&lt;span style=&quot;background-color: initial;&quot;&gt;&amp;nbsp;car parking&lt;/span&gt;&lt;/div&gt;" style="rhombus;whiteSpace=wrap;html=1;" parent="1" vertex="1">
          <mxGeometry x="1220" y="940" width="140" height="140" as="geometry" />
        </mxCell>
        <mxCell id="jqGfhg1RxOjhNtgh079G-45" style="edgeStyle=orthogonalEdgeStyle;rounded=0;orthogonalLoop=1;jettySize=auto;html=1;exitX=0.5;exitY=1;exitDx=0;exitDy=0;" parent="1" source="jqGfhg1RxOjhNtgh079G-14" edge="1">
          <mxGeometry relative="1" as="geometry">
            <mxPoint x="690" y="1580" as="targetPoint" />
          </mxGeometry>
        </mxCell>
        <mxCell id="jqGfhg1RxOjhNtgh079G-14" value="park bicycle" style="rounded=1;whiteSpace=wrap;html=1;" parent="1" vertex="1">
          <mxGeometry x="630" y="1360" width="120" height="60" as="geometry" />
        </mxCell>
        <mxCell id="jqGfhg1RxOjhNtgh079G-44" style="edgeStyle=orthogonalEdgeStyle;rounded=0;orthogonalLoop=1;jettySize=auto;html=1;exitX=0.5;exitY=1;exitDx=0;exitDy=0;entryX=1;entryY=0.5;entryDx=0;entryDy=0;" parent="1" source="jqGfhg1RxOjhNtgh079G-15" target="jqGfhg1RxOjhNtgh079G-7" edge="1">
          <mxGeometry relative="1" as="geometry" />
        </mxCell>
        <mxCell id="jqGfhg1RxOjhNtgh079G-15" value="park car" style="rounded=1;whiteSpace=wrap;html=1;" parent="1" vertex="1">
          <mxGeometry x="1230" y="1360" width="120" height="60" as="geometry" />
        </mxCell>
        <mxCell id="jqGfhg1RxOjhNtgh079G-47" style="edgeStyle=orthogonalEdgeStyle;rounded=0;orthogonalLoop=1;jettySize=auto;html=1;exitX=0.5;exitY=1;exitDx=0;exitDy=0;entryX=0.5;entryY=0;entryDx=0;entryDy=0;" parent="1" source="jqGfhg1RxOjhNtgh079G-16" target="jqGfhg1RxOjhNtgh079G-17" edge="1">
          <mxGeometry relative="1" as="geometry" />
        </mxCell>
        <mxCell id="jqGfhg1RxOjhNtgh079G-56" style="edgeStyle=orthogonalEdgeStyle;rounded=0;orthogonalLoop=1;jettySize=auto;html=1;exitX=0;exitY=0.5;exitDx=0;exitDy=0;entryX=1;entryY=0.5;entryDx=0;entryDy=0;" parent="1" source="jqGfhg1RxOjhNtgh079G-16" target="jqGfhg1RxOjhNtgh079G-25" edge="1">
          <mxGeometry relative="1" as="geometry" />
        </mxCell>
        <mxCell id="jqGfhg1RxOjhNtgh079G-16" value="u are member" style="rhombus;whiteSpace=wrap;html=1;" parent="1" vertex="1">
          <mxGeometry x="320" y="1680" width="220" height="110" as="geometry" />
        </mxCell>
        <mxCell id="jqGfhg1RxOjhNtgh079G-85" style="edgeStyle=orthogonalEdgeStyle;rounded=0;orthogonalLoop=1;jettySize=auto;html=1;exitX=0.5;exitY=1;exitDx=0;exitDy=0;entryX=0.5;entryY=0;entryDx=0;entryDy=0;" parent="1" source="jqGfhg1RxOjhNtgh079G-17" target="jqGfhg1RxOjhNtgh079G-62" edge="1">
          <mxGeometry relative="1" as="geometry" />
        </mxCell>
        <mxCell id="jqGfhg1RxOjhNtgh079G-17" value="go change clothes" style="rounded=1;whiteSpace=wrap;html=1;" parent="1" vertex="1">
          <mxGeometry x="370" y="1890" width="120" height="60" as="geometry" />
        </mxCell>
        <mxCell id="jqGfhg1RxOjhNtgh079G-50" style="edgeStyle=orthogonalEdgeStyle;rounded=0;orthogonalLoop=1;jettySize=auto;html=1;exitX=0.5;exitY=1;exitDx=0;exitDy=0;entryX=0.5;entryY=0;entryDx=0;entryDy=0;" parent="1" source="jqGfhg1RxOjhNtgh079G-19" target="jqGfhg1RxOjhNtgh079G-20" edge="1">
          <mxGeometry relative="1" as="geometry" />
        </mxCell>
        <mxCell id="jqGfhg1RxOjhNtgh079G-19" value="go to training area" style="rounded=1;whiteSpace=wrap;html=1;" parent="1" vertex="1">
          <mxGeometry x="370" y="2460" width="120" height="60" as="geometry" />
        </mxCell>
        <mxCell id="jqGfhg1RxOjhNtgh079G-51" style="edgeStyle=orthogonalEdgeStyle;rounded=0;orthogonalLoop=1;jettySize=auto;html=1;exitX=0.5;exitY=1;exitDx=0;exitDy=0;entryX=0.5;entryY=0;entryDx=0;entryDy=0;" parent="1" source="jqGfhg1RxOjhNtgh079G-20" target="jqGfhg1RxOjhNtgh079G-22" edge="1">
          <mxGeometry relative="1" as="geometry" />
        </mxCell>
        <mxCell id="jqGfhg1RxOjhNtgh079G-53" style="edgeStyle=orthogonalEdgeStyle;rounded=0;orthogonalLoop=1;jettySize=auto;html=1;exitX=1;exitY=0.5;exitDx=0;exitDy=0;entryX=0.5;entryY=0;entryDx=0;entryDy=0;" parent="1" source="jqGfhg1RxOjhNtgh079G-20" target="jqGfhg1RxOjhNtgh079G-24" edge="1">
          <mxGeometry relative="1" as="geometry" />
        </mxCell>
        <mxCell id="jqGfhg1RxOjhNtgh079G-20" value="u have trainng plan" style="rhombus;whiteSpace=wrap;html=1;" parent="1" vertex="1">
          <mxGeometry x="325" y="2580" width="210" height="80" as="geometry" />
        </mxCell>
        <mxCell id="jqGfhg1RxOjhNtgh079G-54" style="edgeStyle=orthogonalEdgeStyle;rounded=0;orthogonalLoop=1;jettySize=auto;html=1;exitX=1;exitY=0.5;exitDx=0;exitDy=0;entryX=0;entryY=0.5;entryDx=0;entryDy=0;" parent="1" source="jqGfhg1RxOjhNtgh079G-22" target="jqGfhg1RxOjhNtgh079G-24" edge="1">
          <mxGeometry relative="1" as="geometry" />
        </mxCell>
        <mxCell id="jqGfhg1RxOjhNtgh079G-22" value="u know where&amp;nbsp;&lt;div&gt;everything is&lt;/div&gt;" style="rhombus;whiteSpace=wrap;html=1;" parent="1" vertex="1">
          <mxGeometry x="340" y="2720" width="180" height="90" as="geometry" />
        </mxCell>
        <mxCell id="jqGfhg1RxOjhNtgh079G-103" style="edgeStyle=orthogonalEdgeStyle;rounded=0;orthogonalLoop=1;jettySize=auto;html=1;exitX=1;exitY=0.5;exitDx=0;exitDy=0;entryX=0;entryY=0.5;entryDx=0;entryDy=0;" parent="1" source="jqGfhg1RxOjhNtgh079G-23" target="jqGfhg1RxOjhNtgh079G-99" edge="1">
          <mxGeometry relative="1" as="geometry" />
        </mxCell>
        <mxCell id="jqGfhg1RxOjhNtgh079G-23" value="do strenght training" style="rounded=1;whiteSpace=wrap;html=1;" parent="1" vertex="1">
          <mxGeometry x="370" y="2870" width="410" height="60" as="geometry" />
        </mxCell>
        <mxCell id="jqGfhg1RxOjhNtgh079G-55" style="edgeStyle=orthogonalEdgeStyle;rounded=0;orthogonalLoop=1;jettySize=auto;html=1;exitX=0.5;exitY=1;exitDx=0;exitDy=0;entryX=0.707;entryY=0.017;entryDx=0;entryDy=0;entryPerimeter=0;" parent="1" source="jqGfhg1RxOjhNtgh079G-24" target="jqGfhg1RxOjhNtgh079G-23" edge="1">
          <mxGeometry relative="1" as="geometry">
            <mxPoint x="660" y="2860" as="targetPoint" />
          </mxGeometry>
        </mxCell>
        <mxCell id="jqGfhg1RxOjhNtgh079G-24" value="ask for help" style="rounded=1;whiteSpace=wrap;html=1;" parent="1" vertex="1">
          <mxGeometry x="600" y="2735" width="120" height="60" as="geometry" />
        </mxCell>
        <mxCell id="jqGfhg1RxOjhNtgh079G-57" style="edgeStyle=orthogonalEdgeStyle;rounded=0;orthogonalLoop=1;jettySize=auto;html=1;exitX=0.5;exitY=1;exitDx=0;exitDy=0;entryX=0;entryY=0.5;entryDx=0;entryDy=0;" parent="1" source="jqGfhg1RxOjhNtgh079G-25" target="jqGfhg1RxOjhNtgh079G-17" edge="1">
          <mxGeometry relative="1" as="geometry">
            <mxPoint x="360" y="1920" as="targetPoint" />
            <Array as="points">
              <mxPoint x="180" y="1920" />
            </Array>
          </mxGeometry>
        </mxCell>
        <mxCell id="jqGfhg1RxOjhNtgh079G-25" value="sign up" style="rounded=1;whiteSpace=wrap;html=1;" parent="1" vertex="1">
          <mxGeometry x="120" y="1705" width="120" height="60" as="geometry" />
        </mxCell>
        <mxCell id="jqGfhg1RxOjhNtgh079G-49" style="edgeStyle=orthogonalEdgeStyle;rounded=0;orthogonalLoop=1;jettySize=auto;html=1;exitX=0.5;exitY=1;exitDx=0;exitDy=0;entryX=0.5;entryY=0;entryDx=0;entryDy=0;" parent="1" source="jqGfhg1RxOjhNtgh079G-26" target="jqGfhg1RxOjhNtgh079G-19" edge="1">
          <mxGeometry relative="1" as="geometry" />
        </mxCell>
        <mxCell id="jqGfhg1RxOjhNtgh079G-58" style="edgeStyle=orthogonalEdgeStyle;rounded=0;orthogonalLoop=1;jettySize=auto;html=1;exitX=0;exitY=0.5;exitDx=0;exitDy=0;entryX=1;entryY=0.5;entryDx=0;entryDy=0;" parent="1" source="jqGfhg1RxOjhNtgh079G-26" target="jqGfhg1RxOjhNtgh079G-28" edge="1">
          <mxGeometry relative="1" as="geometry" />
        </mxCell>
        <mxCell id="jqGfhg1RxOjhNtgh079G-26" value="training alone" style="rhombus;whiteSpace=wrap;html=1;" parent="1" vertex="1">
          <mxGeometry x="335" y="2200" width="190" height="120" as="geometry" />
        </mxCell>
        <mxCell id="jqGfhg1RxOjhNtgh079G-59" style="edgeStyle=orthogonalEdgeStyle;rounded=0;orthogonalLoop=1;jettySize=auto;html=1;exitX=0;exitY=0.5;exitDx=0;exitDy=0;entryX=1;entryY=0.5;entryDx=0;entryDy=0;" parent="1" source="jqGfhg1RxOjhNtgh079G-28" target="jqGfhg1RxOjhNtgh079G-29" edge="1">
          <mxGeometry relative="1" as="geometry" />
        </mxCell>
        <mxCell id="jqGfhg1RxOjhNtgh079G-61" style="edgeStyle=orthogonalEdgeStyle;rounded=0;orthogonalLoop=1;jettySize=auto;html=1;exitX=0.5;exitY=1;exitDx=0;exitDy=0;" parent="1" source="jqGfhg1RxOjhNtgh079G-28" edge="1">
          <mxGeometry relative="1" as="geometry">
            <mxPoint x="180" y="2490" as="targetPoint" />
          </mxGeometry>
        </mxCell>
        <mxCell id="jqGfhg1RxOjhNtgh079G-28" value="gym have&amp;nbsp;&lt;div&gt;personal trainer&lt;/div&gt;" style="rhombus;whiteSpace=wrap;html=1;" parent="1" vertex="1">
          <mxGeometry x="110" y="2220" width="140" height="80" as="geometry" />
        </mxCell>
        <mxCell id="jqGfhg1RxOjhNtgh079G-60" style="edgeStyle=orthogonalEdgeStyle;rounded=0;orthogonalLoop=1;jettySize=auto;html=1;exitX=0.5;exitY=1;exitDx=0;exitDy=0;entryX=0;entryY=0.5;entryDx=0;entryDy=0;" parent="1" source="jqGfhg1RxOjhNtgh079G-29" target="jqGfhg1RxOjhNtgh079G-19" edge="1">
          <mxGeometry relative="1" as="geometry" />
        </mxCell>
        <mxCell id="jqGfhg1RxOjhNtgh079G-29" value="consider changhing&lt;div&gt;gym&lt;/div&gt;" style="rounded=1;whiteSpace=wrap;html=1;" parent="1" vertex="1">
          <mxGeometry x="-70" y="2230" width="120" height="60" as="geometry" />
        </mxCell>
        <mxCell id="jqGfhg1RxOjhNtgh079G-52" style="edgeStyle=orthogonalEdgeStyle;rounded=0;orthogonalLoop=1;jettySize=auto;html=1;exitX=0.5;exitY=1;exitDx=0;exitDy=0;entryX=0.146;entryY=-0.033;entryDx=0;entryDy=0;entryPerimeter=0;" parent="1" source="jqGfhg1RxOjhNtgh079G-22" target="jqGfhg1RxOjhNtgh079G-23" edge="1">
          <mxGeometry relative="1" as="geometry" />
        </mxCell>
        <mxCell id="jqGfhg1RxOjhNtgh079G-76" style="edgeStyle=orthogonalEdgeStyle;rounded=0;orthogonalLoop=1;jettySize=auto;html=1;exitX=1;exitY=0.5;exitDx=0;exitDy=0;entryX=0;entryY=0.5;entryDx=0;entryDy=0;" parent="1" source="jqGfhg1RxOjhNtgh079G-62" target="jqGfhg1RxOjhNtgh079G-64" edge="1">
          <mxGeometry relative="1" as="geometry" />
        </mxCell>
        <mxCell id="jqGfhg1RxOjhNtgh079G-140" style="edgeStyle=orthogonalEdgeStyle;rounded=0;orthogonalLoop=1;jettySize=auto;html=1;exitX=0.5;exitY=1;exitDx=0;exitDy=0;entryX=0.5;entryY=0;entryDx=0;entryDy=0;" parent="1" source="jqGfhg1RxOjhNtgh079G-62" target="jqGfhg1RxOjhNtgh079G-26" edge="1">
          <mxGeometry relative="1" as="geometry" />
        </mxCell>
        <mxCell id="jqGfhg1RxOjhNtgh079G-62" value="u want to lift&amp;nbsp;weights" style="rhombus;whiteSpace=wrap;html=1;" parent="1" vertex="1">
          <mxGeometry x="340" y="2030" width="185" height="100" as="geometry" />
        </mxCell>
        <mxCell id="jqGfhg1RxOjhNtgh079G-77" style="edgeStyle=orthogonalEdgeStyle;rounded=0;orthogonalLoop=1;jettySize=auto;html=1;exitX=0.5;exitY=1;exitDx=0;exitDy=0;entryX=0.5;entryY=0;entryDx=0;entryDy=0;" parent="1" source="jqGfhg1RxOjhNtgh079G-64" target="jqGfhg1RxOjhNtgh079G-67" edge="1">
          <mxGeometry relative="1" as="geometry" />
        </mxCell>
        <mxCell id="jqGfhg1RxOjhNtgh079G-87" style="edgeStyle=orthogonalEdgeStyle;rounded=0;orthogonalLoop=1;jettySize=auto;html=1;exitX=1;exitY=0.5;exitDx=0;exitDy=0;entryX=0;entryY=0.5;entryDx=0;entryDy=0;" parent="1" source="jqGfhg1RxOjhNtgh079G-64" target="jqGfhg1RxOjhNtgh079G-86" edge="1">
          <mxGeometry relative="1" as="geometry" />
        </mxCell>
        <mxCell id="jqGfhg1RxOjhNtgh079G-64" value="u want to do cardio" style="rhombus;whiteSpace=wrap;html=1;" parent="1" vertex="1">
          <mxGeometry x="930" y="2030" width="185" height="100" as="geometry" />
        </mxCell>
        <mxCell id="jqGfhg1RxOjhNtgh079G-78" style="edgeStyle=orthogonalEdgeStyle;rounded=0;orthogonalLoop=1;jettySize=auto;html=1;exitX=0.5;exitY=1;exitDx=0;exitDy=0;entryX=0.5;entryY=0;entryDx=0;entryDy=0;" parent="1" source="jqGfhg1RxOjhNtgh079G-67" target="jqGfhg1RxOjhNtgh079G-68" edge="1">
          <mxGeometry relative="1" as="geometry" />
        </mxCell>
        <mxCell id="jqGfhg1RxOjhNtgh079G-80" style="edgeStyle=orthogonalEdgeStyle;rounded=0;orthogonalLoop=1;jettySize=auto;html=1;" parent="1" source="jqGfhg1RxOjhNtgh079G-67" target="jqGfhg1RxOjhNtgh079G-71" edge="1">
          <mxGeometry relative="1" as="geometry" />
        </mxCell>
        <mxCell id="jqGfhg1RxOjhNtgh079G-67" value="wanna run" style="rhombus;whiteSpace=wrap;html=1;" parent="1" vertex="1">
          <mxGeometry x="922.5" y="2200" width="200" height="90" as="geometry" />
        </mxCell>
        <mxCell id="jqGfhg1RxOjhNtgh079G-79" style="edgeStyle=orthogonalEdgeStyle;rounded=0;orthogonalLoop=1;jettySize=auto;html=1;exitX=0.5;exitY=1;exitDx=0;exitDy=0;entryX=0.5;entryY=0;entryDx=0;entryDy=0;" parent="1" source="jqGfhg1RxOjhNtgh079G-68" target="jqGfhg1RxOjhNtgh079G-69" edge="1">
          <mxGeometry relative="1" as="geometry" />
        </mxCell>
        <mxCell id="jqGfhg1RxOjhNtgh079G-81" style="edgeStyle=orthogonalEdgeStyle;rounded=0;orthogonalLoop=1;jettySize=auto;html=1;exitX=1;exitY=0.5;exitDx=0;exitDy=0;" parent="1" source="jqGfhg1RxOjhNtgh079G-68" target="jqGfhg1RxOjhNtgh079G-72" edge="1">
          <mxGeometry relative="1" as="geometry" />
        </mxCell>
        <mxCell id="jqGfhg1RxOjhNtgh079G-68" value="wanna do bicycle" style="rhombus;whiteSpace=wrap;html=1;" parent="1" vertex="1">
          <mxGeometry x="922.5" y="2350" width="200" height="90" as="geometry" />
        </mxCell>
        <mxCell id="jqGfhg1RxOjhNtgh079G-82" style="edgeStyle=orthogonalEdgeStyle;rounded=0;orthogonalLoop=1;jettySize=auto;html=1;exitX=1;exitY=0.5;exitDx=0;exitDy=0;entryX=0;entryY=0.5;entryDx=0;entryDy=0;" parent="1" source="jqGfhg1RxOjhNtgh079G-69" target="jqGfhg1RxOjhNtgh079G-73" edge="1">
          <mxGeometry relative="1" as="geometry" />
        </mxCell>
        <mxCell id="jqGfhg1RxOjhNtgh079G-84" style="edgeStyle=orthogonalEdgeStyle;rounded=0;orthogonalLoop=1;jettySize=auto;html=1;exitX=0;exitY=0.5;exitDx=0;exitDy=0;" parent="1" source="jqGfhg1RxOjhNtgh079G-69" edge="1">
          <mxGeometry relative="1" as="geometry">
            <mxPoint x="430" y="1980" as="targetPoint" />
            <Array as="points">
              <mxPoint x="706" y="2545" />
              <mxPoint x="706" y="2000" />
              <mxPoint x="490" y="2000" />
            </Array>
          </mxGeometry>
        </mxCell>
        <mxCell id="jqGfhg1RxOjhNtgh079G-69" value="wanna swim" style="rhombus;whiteSpace=wrap;html=1;" parent="1" vertex="1">
          <mxGeometry x="922.5" y="2500" width="200" height="90" as="geometry" />
        </mxCell>
        <mxCell id="jqGfhg1RxOjhNtgh079G-71" value="do treadmill" style="rounded=1;whiteSpace=wrap;html=1;" parent="1" vertex="1">
          <mxGeometry x="1270" y="2215" width="120" height="60" as="geometry" />
        </mxCell>
        <mxCell id="jqGfhg1RxOjhNtgh079G-105" style="edgeStyle=orthogonalEdgeStyle;rounded=0;orthogonalLoop=1;jettySize=auto;html=1;exitX=1;exitY=0.5;exitDx=0;exitDy=0;" parent="1" source="jqGfhg1RxOjhNtgh079G-72" edge="1">
          <mxGeometry relative="1" as="geometry">
            <mxPoint x="1490" y="2395.5555555555557" as="targetPoint" />
          </mxGeometry>
        </mxCell>
        <mxCell id="jqGfhg1RxOjhNtgh079G-72" value="do treadmill" style="rounded=1;whiteSpace=wrap;html=1;" parent="1" vertex="1">
          <mxGeometry x="1270" y="2365" width="120" height="60" as="geometry" />
        </mxCell>
        <mxCell id="jqGfhg1RxOjhNtgh079G-106" style="edgeStyle=orthogonalEdgeStyle;rounded=0;orthogonalLoop=1;jettySize=auto;html=1;exitX=1;exitY=0.5;exitDx=0;exitDy=0;" parent="1" source="jqGfhg1RxOjhNtgh079G-73" edge="1">
          <mxGeometry relative="1" as="geometry">
            <mxPoint x="1490" y="2546" as="targetPoint" />
          </mxGeometry>
        </mxCell>
        <mxCell id="jqGfhg1RxOjhNtgh079G-73" value="do treadmill" style="rounded=1;whiteSpace=wrap;html=1;" parent="1" vertex="1">
          <mxGeometry x="1270" y="2515" width="120" height="60" as="geometry" />
        </mxCell>
        <mxCell id="jqGfhg1RxOjhNtgh079G-96" style="edgeStyle=orthogonalEdgeStyle;rounded=0;orthogonalLoop=1;jettySize=auto;html=1;exitX=0.5;exitY=1;exitDx=0;exitDy=0;entryX=0.5;entryY=0;entryDx=0;entryDy=0;" parent="1" source="jqGfhg1RxOjhNtgh079G-86" target="jqGfhg1RxOjhNtgh079G-89" edge="1">
          <mxGeometry relative="1" as="geometry" />
        </mxCell>
        <mxCell id="jqGfhg1RxOjhNtgh079G-160" style="edgeStyle=orthogonalEdgeStyle;rounded=0;orthogonalLoop=1;jettySize=auto;html=1;exitX=1;exitY=0.5;exitDx=0;exitDy=0;" parent="1" source="jqGfhg1RxOjhNtgh079G-86" edge="1">
          <mxGeometry relative="1" as="geometry">
            <mxPoint x="1520" y="1980" as="targetPoint" />
            <Array as="points">
              <mxPoint x="2050" y="2080" />
              <mxPoint x="2050" y="1980" />
            </Array>
          </mxGeometry>
        </mxCell>
        <mxCell id="jqGfhg1RxOjhNtgh079G-86" value="u want to do spa" style="rhombus;whiteSpace=wrap;html=1;" parent="1" vertex="1">
          <mxGeometry x="1850" y="2030" width="180" height="100" as="geometry" />
        </mxCell>
        <mxCell id="jqGfhg1RxOjhNtgh079G-94" style="edgeStyle=orthogonalEdgeStyle;rounded=0;orthogonalLoop=1;jettySize=auto;html=1;exitX=1;exitY=0.5;exitDx=0;exitDy=0;entryX=0;entryY=0.5;entryDx=0;entryDy=0;" parent="1" source="jqGfhg1RxOjhNtgh079G-89" target="jqGfhg1RxOjhNtgh079G-92" edge="1">
          <mxGeometry relative="1" as="geometry" />
        </mxCell>
        <mxCell id="jqGfhg1RxOjhNtgh079G-97" style="edgeStyle=orthogonalEdgeStyle;rounded=0;orthogonalLoop=1;jettySize=auto;html=1;exitX=0.5;exitY=1;exitDx=0;exitDy=0;entryX=0.5;entryY=0;entryDx=0;entryDy=0;" parent="1" source="jqGfhg1RxOjhNtgh079G-89" target="jqGfhg1RxOjhNtgh079G-91" edge="1">
          <mxGeometry relative="1" as="geometry" />
        </mxCell>
        <mxCell id="jqGfhg1RxOjhNtgh079G-89" value="do sauna" style="rhombus;whiteSpace=wrap;html=1;" parent="1" vertex="1">
          <mxGeometry x="1855" y="2190" width="170" height="100" as="geometry" />
        </mxCell>
        <mxCell id="jqGfhg1RxOjhNtgh079G-95" style="edgeStyle=orthogonalEdgeStyle;rounded=0;orthogonalLoop=1;jettySize=auto;html=1;exitX=1;exitY=0.5;exitDx=0;exitDy=0;entryX=0;entryY=0.5;entryDx=0;entryDy=0;" parent="1" source="jqGfhg1RxOjhNtgh079G-91" target="jqGfhg1RxOjhNtgh079G-93" edge="1">
          <mxGeometry relative="1" as="geometry" />
        </mxCell>
        <mxCell id="jqGfhg1RxOjhNtgh079G-98" style="edgeStyle=orthogonalEdgeStyle;rounded=0;orthogonalLoop=1;jettySize=auto;html=1;exitX=0;exitY=0.5;exitDx=0;exitDy=0;" parent="1" source="jqGfhg1RxOjhNtgh079G-91" edge="1">
          <mxGeometry relative="1" as="geometry">
            <mxPoint x="490" y="1980" as="targetPoint" />
            <Array as="points">
              <mxPoint x="1520" y="2390" />
              <mxPoint x="1520" y="1980" />
            </Array>
          </mxGeometry>
        </mxCell>
        <mxCell id="jqGfhg1RxOjhNtgh079G-91" value="do massage" style="rhombus;whiteSpace=wrap;html=1;" parent="1" vertex="1">
          <mxGeometry x="1865" y="2350" width="150" height="80" as="geometry" />
        </mxCell>
        <mxCell id="jqGfhg1RxOjhNtgh079G-107" style="edgeStyle=orthogonalEdgeStyle;rounded=0;orthogonalLoop=1;jettySize=auto;html=1;exitX=1;exitY=0.5;exitDx=0;exitDy=0;entryX=1;entryY=0.5;entryDx=0;entryDy=0;" parent="1" source="jqGfhg1RxOjhNtgh079G-92" target="jqGfhg1RxOjhNtgh079G-99" edge="1">
          <mxGeometry relative="1" as="geometry" />
        </mxCell>
        <mxCell id="jqGfhg1RxOjhNtgh079G-92" value="go to sauna" style="rounded=1;whiteSpace=wrap;html=1;" parent="1" vertex="1">
          <mxGeometry x="2110" y="2210" width="120" height="60" as="geometry" />
        </mxCell>
        <mxCell id="jqGfhg1RxOjhNtgh079G-108" style="edgeStyle=orthogonalEdgeStyle;rounded=0;orthogonalLoop=1;jettySize=auto;html=1;exitX=1;exitY=0.5;exitDx=0;exitDy=0;" parent="1" source="jqGfhg1RxOjhNtgh079G-93" edge="1">
          <mxGeometry relative="1" as="geometry">
            <mxPoint x="2250" y="2390" as="targetPoint" />
          </mxGeometry>
        </mxCell>
        <mxCell id="jqGfhg1RxOjhNtgh079G-93" value="go do massage" style="rounded=1;whiteSpace=wrap;html=1;" parent="1" vertex="1">
          <mxGeometry x="2110" y="2360" width="120" height="60" as="geometry" />
        </mxCell>
        <mxCell id="jqGfhg1RxOjhNtgh079G-109" style="edgeStyle=orthogonalEdgeStyle;rounded=0;orthogonalLoop=1;jettySize=auto;html=1;exitX=0.5;exitY=1;exitDx=0;exitDy=0;entryX=0.5;entryY=0;entryDx=0;entryDy=0;" parent="1" source="jqGfhg1RxOjhNtgh079G-99" target="jqGfhg1RxOjhNtgh079G-101" edge="1">
          <mxGeometry relative="1" as="geometry" />
        </mxCell>
        <mxCell id="jqGfhg1RxOjhNtgh079G-99" value="go get shower" style="rounded=1;whiteSpace=wrap;html=1;" parent="1" vertex="1">
          <mxGeometry x="1430" y="2870" width="380" height="60" as="geometry" />
        </mxCell>
        <mxCell id="jqGfhg1RxOjhNtgh079G-110" style="edgeStyle=orthogonalEdgeStyle;rounded=0;orthogonalLoop=1;jettySize=auto;html=1;exitX=0.5;exitY=1;exitDx=0;exitDy=0;entryX=0.5;entryY=0;entryDx=0;entryDy=0;" parent="1" source="jqGfhg1RxOjhNtgh079G-101" target="jqGfhg1RxOjhNtgh079G-102" edge="1">
          <mxGeometry relative="1" as="geometry" />
        </mxCell>
        <mxCell id="jqGfhg1RxOjhNtgh079G-101" value="change clothes" style="rounded=1;whiteSpace=wrap;html=1;" parent="1" vertex="1">
          <mxGeometry x="1430" y="3040" width="380" height="60" as="geometry" />
        </mxCell>
        <mxCell id="jqGfhg1RxOjhNtgh079G-102" value="End" style="ellipse;whiteSpace=wrap;html=1;" parent="1" vertex="1">
          <mxGeometry x="1560" y="3210" width="120" height="80" as="geometry" />
        </mxCell>
        <mxCell id="jqGfhg1RxOjhNtgh079G-104" style="edgeStyle=orthogonalEdgeStyle;rounded=0;orthogonalLoop=1;jettySize=auto;html=1;exitX=1;exitY=0.5;exitDx=0;exitDy=0;entryX=0.162;entryY=-0.019;entryDx=0;entryDy=0;entryPerimeter=0;" parent="1" source="jqGfhg1RxOjhNtgh079G-71" target="jqGfhg1RxOjhNtgh079G-99" edge="1">
          <mxGeometry relative="1" as="geometry" />
        </mxCell>
        <mxCell id="jqGfhg1RxOjhNtgh079G-111" value="false" style="text;html=1;align=center;verticalAlign=middle;resizable=0;points=[];autosize=1;strokeColor=none;fillColor=none;" parent="1" vertex="1">
          <mxGeometry x="495" y="358" width="50" height="30" as="geometry" />
        </mxCell>
        <mxCell id="jqGfhg1RxOjhNtgh079G-112" value="true" style="text;html=1;align=center;verticalAlign=middle;resizable=0;points=[];autosize=1;strokeColor=none;fillColor=none;" parent="1" vertex="1">
          <mxGeometry x="430" y="448" width="40" height="30" as="geometry" />
        </mxCell>
        <mxCell id="jqGfhg1RxOjhNtgh079G-113" value="true" style="text;html=1;align=center;verticalAlign=middle;resizable=0;points=[];autosize=1;strokeColor=none;fillColor=none;" parent="1" vertex="1">
          <mxGeometry x="425" y="660" width="40" height="30" as="geometry" />
        </mxCell>
        <mxCell id="jqGfhg1RxOjhNtgh079G-115" value="false" style="text;html=1;align=center;verticalAlign=middle;resizable=0;points=[];autosize=1;strokeColor=none;fillColor=none;" parent="1" vertex="1">
          <mxGeometry x="495" y="560" width="50" height="30" as="geometry" />
        </mxCell>
        <mxCell id="jqGfhg1RxOjhNtgh079G-116" value="true" style="text;html=1;align=center;verticalAlign=middle;resizable=0;points=[];autosize=1;strokeColor=none;fillColor=none;" parent="1" vertex="1">
          <mxGeometry x="430" y="880" width="40" height="30" as="geometry" />
        </mxCell>
        <mxCell id="jqGfhg1RxOjhNtgh079G-117" value="true" style="text;html=1;align=center;verticalAlign=middle;resizable=0;points=[];autosize=1;strokeColor=none;fillColor=none;" parent="1" vertex="1">
          <mxGeometry x="690" y="870" width="40" height="30" as="geometry" />
        </mxCell>
        <mxCell id="jqGfhg1RxOjhNtgh079G-118" value="true" style="text;html=1;align=center;verticalAlign=middle;resizable=0;points=[];autosize=1;strokeColor=none;fillColor=none;" parent="1" vertex="1">
          <mxGeometry x="1300" y="880" width="40" height="30" as="geometry" />
        </mxCell>
        <mxCell id="jqGfhg1RxOjhNtgh079G-121" value="false" style="text;html=1;align=center;verticalAlign=middle;resizable=0;points=[];autosize=1;strokeColor=none;fillColor=none;" parent="1" vertex="1">
          <mxGeometry x="1290" y="690" width="50" height="30" as="geometry" />
        </mxCell>
        <mxCell id="jqGfhg1RxOjhNtgh079G-122" value="false" style="text;html=1;align=center;verticalAlign=middle;resizable=0;points=[];autosize=1;strokeColor=none;fillColor=none;" parent="1" vertex="1">
          <mxGeometry x="760" y="770" width="50" height="30" as="geometry" />
        </mxCell>
        <mxCell id="jqGfhg1RxOjhNtgh079G-123" value="false" style="text;html=1;align=center;verticalAlign=middle;resizable=0;points=[];autosize=1;strokeColor=none;fillColor=none;" parent="1" vertex="1">
          <mxGeometry x="505" y="770" width="50" height="30" as="geometry" />
        </mxCell>
        <mxCell id="jqGfhg1RxOjhNtgh079G-131" style="edgeStyle=orthogonalEdgeStyle;rounded=0;orthogonalLoop=1;jettySize=auto;html=1;exitX=0.5;exitY=1;exitDx=0;exitDy=0;entryX=0.5;entryY=0;entryDx=0;entryDy=0;" parent="1" source="jqGfhg1RxOjhNtgh079G-124" target="jqGfhg1RxOjhNtgh079G-125" edge="1">
          <mxGeometry relative="1" as="geometry" />
        </mxCell>
        <mxCell id="jqGfhg1RxOjhNtgh079G-124" value="find nearest parking" style="rounded=1;whiteSpace=wrap;html=1;" parent="1" vertex="1">
          <mxGeometry x="930" y="980" width="120" height="60" as="geometry" />
        </mxCell>
        <mxCell id="jqGfhg1RxOjhNtgh079G-132" style="edgeStyle=orthogonalEdgeStyle;rounded=0;orthogonalLoop=1;jettySize=auto;html=1;exitX=0.5;exitY=1;exitDx=0;exitDy=0;" parent="1" source="jqGfhg1RxOjhNtgh079G-125" edge="1">
          <mxGeometry relative="1" as="geometry">
            <mxPoint x="989.7142857142858" y="1580" as="targetPoint" />
          </mxGeometry>
        </mxCell>
        <mxCell id="jqGfhg1RxOjhNtgh079G-125" value="while walking to the&amp;nbsp;&lt;div&gt;gym, consider changing it :(&lt;/div&gt;" style="rounded=1;whiteSpace=wrap;html=1;" parent="1" vertex="1">
          <mxGeometry x="930" y="1210" width="120" height="60" as="geometry" />
        </mxCell>
        <mxCell id="jqGfhg1RxOjhNtgh079G-133" value="true" style="text;html=1;align=center;verticalAlign=middle;resizable=0;points=[];autosize=1;strokeColor=none;fillColor=none;" parent="1" vertex="1">
          <mxGeometry x="690" y="1080" width="40" height="30" as="geometry" />
        </mxCell>
        <mxCell id="jqGfhg1RxOjhNtgh079G-134" value="true" style="text;html=1;align=center;verticalAlign=middle;resizable=0;points=[];autosize=1;strokeColor=none;fillColor=none;" parent="1" vertex="1">
          <mxGeometry x="1295" y="1080" width="40" height="30" as="geometry" />
        </mxCell>
        <mxCell id="jqGfhg1RxOjhNtgh079G-135" value="false" style="text;html=1;align=center;verticalAlign=middle;resizable=0;points=[];autosize=1;strokeColor=none;fillColor=none;" parent="1" vertex="1">
          <mxGeometry x="760" y="1010" width="50" height="30" as="geometry" />
        </mxCell>
        <mxCell id="jqGfhg1RxOjhNtgh079G-136" value="false" style="text;html=1;align=center;verticalAlign=middle;resizable=0;points=[];autosize=1;strokeColor=none;fillColor=none;" parent="1" vertex="1">
          <mxGeometry x="1170" y="1010" width="50" height="30" as="geometry" />
        </mxCell>
        <mxCell id="jqGfhg1RxOjhNtgh079G-137" value="true" style="text;html=1;align=center;verticalAlign=middle;resizable=0;points=[];autosize=1;strokeColor=none;fillColor=none;" parent="1" vertex="1">
          <mxGeometry x="430" y="1788" width="40" height="30" as="geometry" />
        </mxCell>
        <mxCell id="jqGfhg1RxOjhNtgh079G-138" value="false" style="text;html=1;align=center;verticalAlign=middle;resizable=0;points=[];autosize=1;strokeColor=none;fillColor=none;" parent="1" vertex="1">
          <mxGeometry x="255" y="1708" width="50" height="30" as="geometry" />
        </mxCell>
        <mxCell id="jqGfhg1RxOjhNtgh079G-139" value="true" style="text;html=1;align=center;verticalAlign=middle;resizable=0;points=[];autosize=1;strokeColor=none;fillColor=none;" parent="1" vertex="1">
          <mxGeometry x="450" y="2130" width="40" height="30" as="geometry" />
        </mxCell>
        <mxCell id="jqGfhg1RxOjhNtgh079G-141" value="false" style="text;html=1;align=center;verticalAlign=middle;resizable=0;points=[];autosize=1;strokeColor=none;fillColor=none;" parent="1" vertex="1">
          <mxGeometry x="520" y="2050" width="50" height="30" as="geometry" />
        </mxCell>
        <mxCell id="jqGfhg1RxOjhNtgh079G-142" value="false" style="text;html=1;align=center;verticalAlign=middle;resizable=0;points=[];autosize=1;strokeColor=none;fillColor=none;" parent="1" vertex="1">
          <mxGeometry x="290" y="2230" width="50" height="30" as="geometry" />
        </mxCell>
        <mxCell id="jqGfhg1RxOjhNtgh079G-143" value="true" style="text;html=1;align=center;verticalAlign=middle;resizable=0;points=[];autosize=1;strokeColor=none;fillColor=none;" parent="1" vertex="1">
          <mxGeometry x="430" y="2320" width="40" height="30" as="geometry" />
        </mxCell>
        <mxCell id="jqGfhg1RxOjhNtgh079G-144" value="true" style="text;html=1;align=center;verticalAlign=middle;resizable=0;points=[];autosize=1;strokeColor=none;fillColor=none;" parent="1" vertex="1">
          <mxGeometry x="180" y="2300" width="40" height="30" as="geometry" />
        </mxCell>
        <mxCell id="jqGfhg1RxOjhNtgh079G-145" value="false" style="text;html=1;align=center;verticalAlign=middle;resizable=0;points=[];autosize=1;strokeColor=none;fillColor=none;" parent="1" vertex="1">
          <mxGeometry x="70" y="2230" width="50" height="30" as="geometry" />
        </mxCell>
        <mxCell id="jqGfhg1RxOjhNtgh079G-146" value="true" style="text;html=1;align=center;verticalAlign=middle;resizable=0;points=[];autosize=1;strokeColor=none;fillColor=none;" parent="1" vertex="1">
          <mxGeometry x="430" y="2660" width="40" height="30" as="geometry" />
        </mxCell>
        <mxCell id="jqGfhg1RxOjhNtgh079G-147" value="true" style="text;html=1;align=center;verticalAlign=middle;resizable=0;points=[];autosize=1;strokeColor=none;fillColor=none;" parent="1" vertex="1">
          <mxGeometry x="430" y="2810" width="40" height="30" as="geometry" />
        </mxCell>
        <mxCell id="jqGfhg1RxOjhNtgh079G-148" value="false" style="text;html=1;align=center;verticalAlign=middle;resizable=0;points=[];autosize=1;strokeColor=none;fillColor=none;" parent="1" vertex="1">
          <mxGeometry x="535" y="2590" width="50" height="30" as="geometry" />
        </mxCell>
        <mxCell id="jqGfhg1RxOjhNtgh079G-149" value="false" style="text;html=1;align=center;verticalAlign=middle;resizable=0;points=[];autosize=1;strokeColor=none;fillColor=none;" parent="1" vertex="1">
          <mxGeometry x="520" y="2735" width="50" height="30" as="geometry" />
        </mxCell>
        <mxCell id="jqGfhg1RxOjhNtgh079G-150" value="true" style="text;html=1;align=center;verticalAlign=middle;resizable=0;points=[];autosize=1;strokeColor=none;fillColor=none;" parent="1" vertex="1">
          <mxGeometry x="1020" y="2128" width="40" height="30" as="geometry" />
        </mxCell>
        <mxCell id="jqGfhg1RxOjhNtgh079G-151" value="true" style="text;html=1;align=center;verticalAlign=middle;resizable=0;points=[];autosize=1;strokeColor=none;fillColor=none;" parent="1" vertex="1">
          <mxGeometry x="1122.5" y="2515" width="40" height="30" as="geometry" />
        </mxCell>
        <mxCell id="jqGfhg1RxOjhNtgh079G-152" value="true" style="text;html=1;align=center;verticalAlign=middle;resizable=0;points=[];autosize=1;strokeColor=none;fillColor=none;" parent="1" vertex="1">
          <mxGeometry x="1122.5" y="2365" width="40" height="30" as="geometry" />
        </mxCell>
        <mxCell id="jqGfhg1RxOjhNtgh079G-153" value="true" style="text;html=1;align=center;verticalAlign=middle;resizable=0;points=[];autosize=1;strokeColor=none;fillColor=none;" parent="1" vertex="1">
          <mxGeometry x="1122.5" y="2220" width="40" height="30" as="geometry" />
        </mxCell>
        <mxCell id="jqGfhg1RxOjhNtgh079G-154" value="false" style="text;html=1;align=center;verticalAlign=middle;resizable=0;points=[];autosize=1;strokeColor=none;fillColor=none;" parent="1" vertex="1">
          <mxGeometry x="1110" y="2050" width="50" height="30" as="geometry" />
        </mxCell>
        <mxCell id="jqGfhg1RxOjhNtgh079G-155" value="false" style="text;html=1;align=center;verticalAlign=middle;resizable=0;points=[];autosize=1;strokeColor=none;fillColor=none;" parent="1" vertex="1">
          <mxGeometry x="1990" y="2030" width="50" height="30" as="geometry" />
        </mxCell>
        <mxCell id="jqGfhg1RxOjhNtgh079G-156" value="false" style="text;html=1;align=center;verticalAlign=middle;resizable=0;points=[];autosize=1;strokeColor=none;fillColor=none;" parent="1" vertex="1">
          <mxGeometry x="1020" y="2440" width="50" height="30" as="geometry" />
        </mxCell>
        <mxCell id="jqGfhg1RxOjhNtgh079G-157" value="false" style="text;html=1;align=center;verticalAlign=middle;resizable=0;points=[];autosize=1;strokeColor=none;fillColor=none;" parent="1" vertex="1">
          <mxGeometry x="1020" y="2290" width="50" height="30" as="geometry" />
        </mxCell>
        <mxCell id="jqGfhg1RxOjhNtgh079G-159" value="true" style="text;html=1;align=center;verticalAlign=middle;resizable=0;points=[];autosize=1;strokeColor=none;fillColor=none;" parent="1" vertex="1">
          <mxGeometry x="1950" y="2130" width="40" height="30" as="geometry" />
        </mxCell>
        <mxCell id="jqGfhg1RxOjhNtgh079G-161" value="false" style="text;html=1;align=center;verticalAlign=middle;resizable=0;points=[];autosize=1;strokeColor=none;fillColor=none;" parent="1" vertex="1">
          <mxGeometry x="1940" y="2290" width="50" height="30" as="geometry" />
        </mxCell>
        <mxCell id="jqGfhg1RxOjhNtgh079G-162" value="false" style="text;html=1;align=center;verticalAlign=middle;resizable=0;points=[];autosize=1;strokeColor=none;fillColor=none;" parent="1" vertex="1">
          <mxGeometry x="1815" y="2365" width="50" height="30" as="geometry" />
        </mxCell>
        <mxCell id="jqGfhg1RxOjhNtgh079G-163" value="true" style="text;html=1;align=center;verticalAlign=middle;resizable=0;points=[];autosize=1;strokeColor=none;fillColor=none;" parent="1" vertex="1">
          <mxGeometry x="2015" y="2210" width="40" height="30" as="geometry" />
        </mxCell>
        <mxCell id="jqGfhg1RxOjhNtgh079G-164" value="true" style="text;html=1;align=center;verticalAlign=middle;resizable=0;points=[];autosize=1;strokeColor=none;fillColor=none;" parent="1" vertex="1">
          <mxGeometry x="2010" y="2365" width="40" height="30" as="geometry" />
        </mxCell>
        <mxCell id="jqGfhg1RxOjhNtgh079G-165" value="false" style="text;html=1;align=center;verticalAlign=middle;resizable=0;points=[];autosize=1;strokeColor=none;fillColor=none;" parent="1" vertex="1">
          <mxGeometry x="872.5" y="2520" width="50" height="30" as="geometry" />
        </mxCell>
      </root>
    </mxGraphModel>
  </diagram>
</mxfile>
